<?xml version="1.0" encoding="UTF-8" standalone="no"?>
<!-- Created with Inkscape (http://www.inkscape.org/) -->

<svg
   xmlns:dc="http://purl.org/dc/elements/1.1/"
   xmlns:cc="http://creativecommons.org/ns#"
   xmlns:rdf="http://www.w3.org/1999/02/22-rdf-syntax-ns#"
   xmlns:svg="http://www.w3.org/2000/svg"
   xmlns="http://www.w3.org/2000/svg"
   xmlns:sodipodi="http://sodipodi.sourceforge.net/DTD/sodipodi-0.dtd"
   xmlns:inkscape="http://www.inkscape.org/namespaces/inkscape"
   id="svg4235"
   version="1.1"
   inkscape:version="0.91 r13725"
   width="20px"
   height="10px"
   viewBox="0 0 242.7 121.5"
   sodipodi:docname="ssrn.svg">
  <metadata
     id="metadata4241">
    <rdf:RDF>
      <cc:Work
         rdf:about="">
        <dc:format>image/svg+xml</dc:format>
        <dc:type
           rdf:resource="http://purl.org/dc/dcmitype/StillImage" />
        <dc:title></dc:title>
      </cc:Work>
    </rdf:RDF>
  </metadata>
  <defs
     id="defs4239" />
  <sodipodi:namedview
     pagecolor="#ffffff"
     bordercolor="#666666"
     borderopacity="1"
     objecttolerance="10"
     gridtolerance="10"
     guidetolerance="10"
     inkscape:pageopacity="0"
     inkscape:pageshadow="2"
     inkscape:window-width="640"
     inkscape:window-height="480"
     id="namedview4237"
     showgrid="false"
     inkscape:zoom="2.8284271"
     inkscape:cx="81.388415"
     inkscape:cy="13.02568"
     inkscape:current-layer="svg4235" />
  <path
     style="fill:#090042;fill-opacity:1"
     d="m 167.00671,97.534241 c -4.05712,-0.80626 -7.69025,-3.049271 -11.36104,-7.014071 -2.065,-2.23038 -4.64931,-5.85755 -9.88185,-13.86945 -1.76049,-2.69562 -5.317,-8.14112 -7.90334,-12.10112 -2.58634,-3.96 -4.99344,-7.52156 -5.3491,-7.91458 -1.39403,-1.54044 -2.6296,-1.82169 -8.03416,-1.82883 -5.93002,-0.008 -6.68118,0.10684 -7.12832,1.08819 -0.39797,0.87345 -0.44078,20.17352 -0.061,27.48011 0.21502,4.1362 0.33695,4.90246 0.97864,6.15 1.41845,2.75768 4.44505,4.36509 9.99814,5.30994 3.4438,0.58595 4.39234,1.561201 2.44267,2.511421 -0.64928,0.31644 -1.45588,0.33155 -4.00495,0.075 -4.12519,-0.41518 -21.24469,-0.41574 -25.36719,-9e-4 -3.44268,0.34656 -4.42049,0.14439 -4.42049,-0.91389 0,-0.643781 1.06256,-1.506461 1.8555,-1.506461 0.28709,0 1.26552,-0.27819 2.17428,-0.6182 1.2573,-0.47042 2.26013,-1.2152 4.19501,-3.11553 3.7221,-3.65567 6.84874,-8.7865 8.60221,-14.11627 1.68667,-5.18512 1.00756,-10.44189 -0.29072,-14.25 -1.7196,-5.0313 -2.86976,-7.28594 -4.75625,-9.32357 l -1.58003,-1.70662 0,-9.40047 0,-9.40047 1.44714,-1.50943 c 0.79593,-0.83019 1.70219,-2.10151 2.01392,-2.82514 0.56015,-1.30034 0.5585,-1.39493 -0.14215,-8.1 -0.38991,-3.73137 -0.81839,-7.8643 -0.95219,-9.1843 -0.1338,-1.32 -0.32089,-2.9508201 -0.41574,-3.6240501 l -0.17246,-1.22404 9.53574,-0.37481 c 10.42105,-0.4096003 14.82141,-0.2202803 20.15824,0.8673 9.20754,1.87637 15.06479,6.3546301 17.4814,13.3656801 2.27864,6.61078 1.47463,14.50093 -2.05672,20.18374 -2.36594,3.80737 -5.95896,6.9477 -12.27284,10.72657 -0.47688,0.28541 0.62258,2.02122 10.07103,15.9 5.83349,8.56878 11.21516,16.38961 11.95928,17.37961 1.96161,2.60984 6.25285,6.74747 8.15417,7.8623 1.84924,1.08429 4.60181,1.8877 6.46747,1.8877 2.59792,0 2.31751,1.62645 -0.43657,2.532331 -3.21379,1.05708 -7.4786,1.29172 -10.94773,0.60231 z M 135.16472,49.57528 c 8.50734,-2.29083 13.20511,-9.14952 12.65469,-18.47568 -0.28368,-4.80651 -1.55654,-8.38336 -4.24997,-11.94275 -2.65291,-3.50584 -7.20772,-6.52461 -11.86293,-7.86233 -2.45365,-0.70508 -8.23622,-1.12134 -10.61721,-0.76429 -1.87155,0.28066 -3.29458,1.53739 -3.7389,3.30197 -0.41209,1.63656 -0.45762,32.13004 -0.0506,33.88461 0.5588,2.40881 1.27521,2.59147 9.61492,2.45146 4.70851,-0.079 6.936,-0.23916 8.25,-0.59299 z M 76.39156,97.369631 C 71.29123,96.831981 65.38211,95.29718 62.17822,93.67794 59.917,92.53512 59.05357,91.71479 58.55988,90.24019 c -0.3276,-0.9785 -0.26754,-1.10906 1.96115,-4.26308 l 2.29909,-3.25366 2.12278,2.01307 c 7.67875,7.28193 17.91119,9.84505 27.32182,6.84384 3.34927,-1.06814 5.9194,-2.65539 8.5508,-5.28076 3.57907,-3.57087 5.10262,-7.11032 5.09564,-11.83803 -0.006,-4.32297 -1.35222,-7.7092 -4.33475,-10.90663 -1.53753,-1.64831 -2.29478,-2.16036 -5.4,-3.65147 -1.98643,-0.95387 -5.43419,-2.37924 -7.66169,-3.16749 -12.55819,-4.44402 -17.27469,-6.407049 -21.61423,-9.233449 -1.22968,-0.80091 -3.33078,-2.498856 -4.66912,-3.827226 -1.96715,-1.95249 -2.4797,-3.113147 -3.6443,-5.075705 -1.54333,-2.600796 -2.08164,-6.238555 -2.08164,-6.238555 0,0 1.18833,-0.670215 2.06512,-1.109725 2.74818,-1.37759 2.56212,-0.65155 2.40489,-9.38429 l -0.13918,-7.73016 1.91423,-1.77304 c 3.85508,-3.5707301 8.30657,-5.9156101 13.56256,-7.1442504 2.2735,-0.53145 3.7161,-0.64555 8.30167,-0.6566 6.56104,-0.0158 8.47235,0.33758 13.91427,2.5727003 1.96035,0.80515 3.72885,1.46392 3.92999,1.46392 0.20114,0 0.9248,-0.405 1.60813,-0.9 0.68333,-0.495 1.44297,-0.9 1.6881,-0.9 0.72959,0 1.27998,1.2257 1.48183,3.3000001 0.10437,1.0725 0.67498,5.15306 1.26802,9.06791 0.59305,3.91484 0.99502,7.4496 0.89327,7.855 -0.10176,0.40541 -0.48053,0.8309 -0.84173,0.94554 -0.90794,0.28816 -1.76264,-0.77496 -2.79497,-3.47653 C 102.98219,17.21781 96.06476,11.64045 87.10681,9.4505799 83.54588,8.5800699 77.48683,8.5079999 74.8804,9.3051399 70.23046,10.72726 66.51536,13.73061 64.74097,17.50202 c -0.85612,1.81964 -0.97598,2.40251 -1.07674,5.23596 -0.12325,3.4658 0.27273,5.44143 1.62584,8.11165 0.90576,1.78743 3.90229,5.01651 5.76251,6.20972 1.70793,1.09553 6.21176,2.85709 14.95666,5.84992 7.55277,2.58484 10.86698,4.04078 14.31628,6.28915 6.18818,4.03365 9.86409,8.70639 11.48636,14.60118 0.78846,2.86501 0.6961,9.76515 -0.17468,13.05 -1.20973,4.5635 -3.38349,8.28891 -6.82494,11.69666 -5.09107,5.04122 -11.76814,8.004721 -19.92031,8.841301 -3.40594,0.34951 -5.04751,0.34605 -8.50039,-0.0179 z m 149.46496,-0.045 C 225.59644,97.118381 212.53568,82.23463 196.83261,64.24963 181.12953,46.26463 167.95506,31.34841 167.556,31.10249 c -0.65526,-0.40383 -0.77719,-0.39554 -1.25842,0.0856 -0.50088,0.50079 -0.53776,2.07402 -0.61443,26.21371 l -0.0816,25.68095 -2.52309,-3.20688 -2.52308,-3.20688 -0.11445,-24.35969 c -0.12602,-26.82863 -0.14118,-27.06703 -2.06861,-32.53064 -2.22566,-6.30898 -5.71701,-9.8361401 -10.93386,-11.0460101 -1.13768,-0.26384 -2.23843,-0.62075 -2.44612,-0.79311 -0.48187,-0.39992 -0.48784,-1.3364 -0.0104,-1.63148 0.20197,-0.12482 3.34072,-0.19407 6.975,-0.15389 l 6.60777,0.0731 1.12205,0.81119 c 0.61712,0.44615 7.425,7.9661801 15.1286,16.7111801 19.28249,21.88914 42.32391,47.98289 45.41795,51.43452 1.56986,1.75131 2.79466,2.86548 3.15,2.86548 0.5694,0 0.58298,-0.46894 0.65828,-22.73094 0.0868,-25.66855 -0.2606,-35.34322 -1.39873,-38.95009 -1.29744,-4.11174 -4.43737,-6.29659 -10.77293,-7.4960801 -2.25147,-0.42626 -3.21994,-1.08133 -2.9334,-1.98412 0.29168,-0.9190203 1.1203,-1.0205903 5.33961,-0.65451 3.78302,0.32823 18.48056,0.18828 20.64909,-0.1966103 0.81267,-0.14425 1.23334,-0.0465 1.8,0.4182603 1.05002,0.86121 0.53659,1.52986 -1.83014,2.38344 -2.02516,0.73038 -3.67535,1.8169801 -4.17378,2.7483001 -0.1658,0.30979 -0.53266,1.35056 -0.81526,2.31281 -0.4701,1.60069 -0.52775,5.18622 -0.67758,42.14321 -0.15884,39.1781 -0.18097,40.412661 -0.73527,41.025001 -0.63742,0.70416 -1.91532,0.82839 -2.6367,0.25633 z M 28.96472,97.212371 C 25.93102,96.903841 21.42755,96.106231 18.90003,95.42982 15.65315,94.5609 11.546919,92.69526 10.598369,91.65801 8.6657358,87.389086 7.9479076,83.320944 6.6308293,78.3496 c -1.55755,-5.87603 -1.56564,-8.55 -0.0259,-8.55 0.84801,0 1.40886,0.89088 2.5216,4.00539 1.3748797,3.84822 3.0624397,6.64462 5.6602397,9.37943 6.458951,6.79959 15.054271,10.13913 23.524931,9.14013 10.90561,-1.28617 18.703,-8.86341 18.703,-18.17495 0,-4.20168 -1.33765,-7.60385 -4.23122,-10.76167 C 51.15609,61.61192 50.48633,61.14928 47.29725,59.59825 45.29934,58.62656 40.38881,56.67082 36.38494,55.25216 28.02783,52.29104 25.29803,51.16765 21.3147,49.05034 13.698609,45.00206 9.2969393,39.91261 7.9618693,33.6111 c -0.56105,-2.64816 -0.56105,-8.37484 0,-11.02299 0.5461,-2.5776 2.3975097,-6.40423 4.1914497,-8.66318 3.09144,-3.89281 8.634071,-7.2876601 14.411381,-8.8269604 2.75182,-0.7332 3.49635,-1.11385 9,-1.13635 6.95643,-0.0284 8.24931,0.51997 14.16924,2.8977903 3.6457,1.46435 3.67592,1.47063 4.7112,0.97936 0.57308,-0.27194 1.1997,-0.6845 1.39249,-0.9168 0.46046,-0.55483 1.43293,-0.53765 1.90915,0.0362 0.7095,0.85489 1.4842,8.6126901 1.42412,14.9687501 l -0.0565,5.9773 C 57.83817,27.292663 57.29347,25.478649 56.84974,24.2827 54.07444,16.67329 46.68291,10.90912 37.0644,8.8533699 c -0.99,-0.21159 -3.555,-0.38045 -5.7,-0.37524 -3.45327,0.008 -4.17119,0.10318 -6.26742,0.82759 C 22.27045,10.2825 20.09014,11.67186 18.1812,13.71267 c -5.092971,5.4448 -4.746721,14.50662 0.77399,20.25586 3.14777,3.27808 4.30934,3.83762 17.17365,8.27276 8.01799,2.76431 10.66715,3.87119 13.97616,5.83953 10.2029,6.06912 14.55066,14.26373 13.23744,24.94976 -0.68792,5.5977 -2.91523,10.36934 -6.70012,14.35384 -5.99353,6.30963 -13.33475,9.399331 -23.32792,9.818021 -1.7325,0.0726 -3.69,0.0771 -4.35,0.01 z m 120.74307,-0.36577 c -1.07945,-0.885281 -0.5927,-1.422721 2.49277,-2.752371 l 2.61577,-1.12724 1.7992,1.73339 c 0.98955,0.95336 1.79919,1.795311 1.79919,1.870991 0,0.0757 -1.31625,0.22308 -2.925,0.32757 -1.60875,0.10448 -3.40062,0.27256 -3.98193,0.37352 -0.8064,0.14005 -1.23307,0.0391 -1.8,-0.42586 z"
     id="path4269"
     inkscape:connector-curvature="0"
     sodipodi:nodetypes="ssssscsssssscssssccscccscssscsssssssssssssssssscscssscssscsssssscsscssssssssscsssssssssssssscccscsscccsssccscssssssscscsscscscccsccssssssssssssssssscsccscssssssssccsscsssss" />
  <g
     style="font-style:normal;font-weight:normal;font-size:20.32483292px;line-height:0%;font-family:'Bitstream Vera Sans';letter-spacing:0px;word-spacing:0px;fill:#000000;fill-opacity:1;stroke:none;stroke-width:1px;stroke-linecap:butt;stroke-linejoin:miter;stroke-opacity:1"
     id="text4134">
    <path
       d="m 18.452282,101.17435 -2.78871,0 q -0.436666,0 -0.555757,0.11909 -0.109167,0.11909 -0.109167,0.58553 l 0,9.72575 0.0099,0.38705 q 0.04962,1.16113 1.300074,1.37947 0.347349,0.0595 0.347349,0.22825 0,0.21834 -0.277879,0.21834 -0.119091,0 -0.486287,-0.0596 -0.188561,-0.0298 -0.893182,-0.0298 l -0.724469,-0.01 -0.77409,0.01 q -0.416818,0 -0.704621,0.0298 -0.565681,0.0596 -0.664923,0.0596 -0.297727,0 -0.297727,-0.21834 0,-0.15879 0.327499,-0.19848 0.764166,-0.0992 1.032121,-0.41682 0.267954,-0.3275 0.267954,-1.16114 l 0,-9.83491 -0.0099,-0.25803 q 0,-0.35727 -0.109167,-0.45652 -0.09924,-0.0992 -0.476363,-0.0992 l -2.629922,0 q -0.8038633,0 -1.17106,0.3275 -0.3572724,0.31758 -0.5557571,1.21076 -0.089318,0.38704 -0.2679544,0.37712 -0.1786362,-0.01 -0.1786362,-0.26796 0,-0.20841 0.1190908,-0.76416 0.1488636,-0.71455 0.1488636,-1.18099 0,-0.45651 0.099242,-0.59545 0.1091666,-0.14886 0.4465906,-0.14886 l 10.6784764,0 q 0.545833,0 0.655,0.11909 0.119091,0.11909 0.119091,0.70462 0,0.58553 0.04962,0.85348 0.04962,0.33743 0.05954,0.48629 0.0099,0.29773 -0.208409,0.31757 -0.178636,0.01 -0.238181,-0.30765 -0.129015,-0.70462 -0.416818,-0.91303 -0.287803,-0.21833 -1.121439,-0.21833 z"
       style="font-style:normal;font-variant:normal;font-weight:normal;font-stretch:semi-expanded;font-family:'Goudy Old Style';-inkscape-font-specification:'Goudy Old Style Semi-Expanded';fill:#000000;fill-opacity:1"
       id="path4221" />
    <path
       d="m 23.940384,105.35245 q 1.786363,0 3.066589,1.26038 1.280226,1.25045 1.280226,2.9872 0,1.8856 -1.260378,3.11621 -1.260377,1.2306 -3.185679,1.2306 -1.885605,0 -3.106285,-1.19091 -1.210757,-1.20083 -1.210757,-3.06659 0,-1.80621 1.29015,-3.06658 1.290151,-1.27031 3.126134,-1.27031 z m -0.25803,0.39697 q -1.240529,0 -2.004695,0.92296 -0.754242,0.91303 -0.754242,2.40166 0,1.89553 0.942802,3.17576 0.952727,1.2703 2.361968,1.2703 1.230605,0 1.935226,-0.90311 0.714545,-0.9031 0.714545,-2.45128 0,-1.95508 -0.893181,-3.18568 -0.893181,-1.23061 -2.302423,-1.23061 z"
       style="font-style:normal;font-variant:normal;font-weight:normal;font-stretch:semi-expanded;font-family:'Goudy Old Style';-inkscape-font-specification:'Goudy Old Style Semi-Expanded';fill:#000000;fill-opacity:1"
       id="path4223" />
    <path
       d="m 32.514922,106.69223 q 1.111514,-1.33978 2.619998,-1.33978 0.873332,0 1.429089,0.33743 0.555758,0.33742 1.042045,1.15121 1.141287,-1.48864 2.729165,-1.48864 1.349696,0 2.103937,0.86341 0.754242,0.85349 0.754242,2.39174 l 0,3.19561 q 0,0.76416 0.297727,1.13136 0.297727,0.3672 0.9825,0.43667 0.238181,0.0198 0.238181,0.2084 0,0.16872 -0.238181,0.16872 -0.109167,0 -0.307652,-0.0298 -0.317575,-0.0496 -0.992423,-0.0496 -1.319923,0 -1.647423,0.0397 -0.218333,0.0298 -0.297727,0.0298 -0.25803,0 -0.267955,-0.18856 -0.0099,-0.10917 0.168712,-0.17863 0.436667,-0.16872 0.565682,-0.3275 0.138939,-0.15879 0.138939,-0.51606 l 0.0099,-0.33743 0,-3.24522 q 0,-1.33978 -0.575605,-2.08409 -0.565682,-0.74432 -1.587878,-0.74432 -0.674848,0 -1.29015,0.42674 -0.615303,0.41682 -0.615303,0.88326 0,0.0992 0.02977,0.2481 0.05954,0.35728 0.05954,0.68478 l 0,3.58265 q 0,0.75424 0.248106,1.05196 0.25803,0.29773 0.962651,0.35728 0.3275,0.0298 0.3275,0.21833 0,0.17864 -0.287803,0.17864 -0.09924,0 -0.317576,-0.0199 -0.545833,-0.0596 -0.932878,-0.0596 -1.35962,0 -1.716892,0.0496 -0.188561,0.0298 -0.307652,0.0298 -0.238181,0 -0.238181,-0.16872 0,-0.10916 0.178636,-0.16871 0.525984,-0.18856 0.625227,-0.36719 0.09924,-0.18857 0.09924,-0.97258 l 0,-3.68189 q 0,-1.04205 -0.545833,-1.6375 -0.535909,-0.60538 -1.488635,-0.60538 -0.873333,0 -1.419166,0.45652 -0.535908,0.44659 -0.535908,1.18098 l 0,4.26742 q 0,0.64508 0.277878,0.9428 0.287803,0.29773 0.962651,0.37713 0.307651,0.0298 0.307651,0.21833 0,0.17863 -0.238181,0.16871 -0.13894,-0.01 -0.476364,-0.0496 -0.208409,-0.0298 -0.823711,-0.0298 l -0.664924,0 -0.674848,0.01 q -0.138939,0 -0.347348,0.0198 -0.25803,0.0298 -0.367197,0.0397 -0.248106,0.01 -0.248106,-0.16872 0,-0.14886 0.218334,-0.21833 0.456514,-0.13894 0.585529,-0.35727 0.129015,-0.21833 0.129015,-0.85349 l 0,-4.44605 q 0,-0.71455 -0.158787,-0.9825 -0.148864,-0.26796 -0.565682,-0.26796 l -0.436666,0 q -0.09924,0 -0.168712,-0.0496 -0.05954,-0.0298 -0.05954,-0.0992 0,-0.12902 0.238181,-0.19848 1.022196,-0.26796 1.895529,-0.76417 0.387045,-0.21833 0.466439,-0.21833 0.148864,0 0.148864,0.36719 l 0,1.20084 z"
       style="font-style:normal;font-variant:normal;font-weight:normal;font-stretch:semi-expanded;font-family:'Goudy Old Style';-inkscape-font-specification:'Goudy Old Style Semi-Expanded';fill:#000000;fill-opacity:1"
       id="path4225" />
    <path
       d="m 50.180062,105.35245 q 1.786362,0 3.066588,1.26038 1.280227,1.25045 1.280227,2.9872 0,1.8856 -1.260378,3.11621 -1.260378,1.2306 -3.18568,1.2306 -1.885604,0 -3.106285,-1.19091 -1.210757,-1.20083 -1.210757,-3.06659 0,-1.80621 1.290151,-3.06658 1.29015,-1.27031 3.126134,-1.27031 z m -0.25803,0.39697 q -1.24053,0 -2.004696,0.92296 -0.754242,0.91303 -0.754242,2.40166 0,1.89553 0.942803,3.17576 0.952726,1.2703 2.361968,1.2703 1.230605,0 1.935225,-0.90311 0.714545,-0.9031 0.714545,-2.45128 0,-1.95508 -0.893181,-3.18568 -0.893181,-1.23061 -2.302422,-1.23061 z"
       style="font-style:normal;font-variant:normal;font-weight:normal;font-stretch:semi-expanded;font-family:'Goudy Old Style';-inkscape-font-specification:'Goudy Old Style Semi-Expanded';fill:#000000;fill-opacity:1"
       id="path4227" />
    <path
       d="m 58.754599,107.15866 q 1.151211,-1.80621 2.123786,-1.80621 0.307652,0 0.803863,0.3672 0.506136,0.3672 0.525985,0.59545 0.0099,0.14887 -0.317576,0.55576 -0.3275,0.39697 -0.466439,0.40689 -0.06947,0 -0.436666,-0.23818 -0.426742,-0.29772 -0.813787,-0.29772 -0.605379,0 -1.012272,0.43666 -0.406894,0.42674 -0.406894,1.07182 l 0,3.54295 q 0,0.83364 0.218333,1.19091 0.228258,0.34735 0.784015,0.39697 l 0.51606,0.0397 q 0.317575,0.0198 0.317575,0.19848 0,0.19849 -0.277878,0.19849 -0.06947,0 -0.466439,-0.0496 -0.188561,-0.0198 -0.555757,-0.0198 l -0.714545,-0.01 -0.436667,0 q -0.77409,0 -1.10159,0.0496 -0.25803,0.0397 -0.357272,0.0496 -0.267954,0.01 -0.267954,-0.19848 0,-0.16871 0.307651,-0.22826 0.426742,-0.0992 0.545833,-0.36719 0.129015,-0.26796 0.129015,-1.14129 l 0,-4.2575 q 0,-1.14129 -1.091666,-1.14129 l -0.337424,0.01 q -0.228257,0 -0.228257,-0.19849 0,-0.11909 0.148863,-0.17863 0.08932,-0.0199 0.218333,-0.0298 0.932878,-0.0893 2.20318,-0.87334 0.129016,-0.0695 0.228258,-0.0794 0.228257,-0.01 0.228257,0.33742 l -0.0099,0.18856 0,1.47871 z"
       style="font-style:normal;font-variant:normal;font-weight:normal;font-stretch:semi-expanded;font-family:'Goudy Old Style';-inkscape-font-specification:'Goudy Old Style Semi-Expanded';fill:#000000;fill-opacity:1"
       id="path4229" />
    <path
       d="m 65.780959,107.15866 q 1.151211,-1.80621 2.123786,-1.80621 0.307651,0 0.803863,0.3672 0.506136,0.3672 0.525984,0.59545 0.0099,0.14887 -0.317575,0.55576 -0.3275,0.39697 -0.466439,0.40689 -0.06947,0 -0.436667,-0.23818 -0.426742,-0.29772 -0.813787,-0.29772 -0.605378,0 -1.012272,0.43666 -0.406893,0.42674 -0.406893,1.07182 l 0,3.54295 q 0,0.83364 0.218333,1.19091 0.228257,0.34735 0.784014,0.39697 l 0.516061,0.0397 q 0.317575,0.0198 0.317575,0.19848 0,0.19849 -0.277879,0.19849 -0.06947,0 -0.466439,-0.0496 -0.18856,-0.0198 -0.555757,-0.0198 l -0.714545,-0.01 -0.436666,0 q -0.77409,0 -1.10159,0.0496 -0.25803,0.0397 -0.357272,0.0496 -0.267955,0.01 -0.267955,-0.19848 0,-0.16871 0.307651,-0.22826 0.426743,-0.0992 0.545833,-0.36719 0.129015,-0.26796 0.129015,-1.14129 l 0,-4.2575 q 0,-1.14129 -1.091665,-1.14129 l -0.337424,0.01 q -0.228258,0 -0.228258,-0.19849 0,-0.11909 0.148864,-0.17863 0.08932,-0.0199 0.218333,-0.0298 0.932878,-0.0893 2.20318,-0.87334 0.129015,-0.0695 0.228257,-0.0794 0.228258,-0.01 0.228258,0.33742 l -0.0099,0.18856 0,1.47871 z"
       style="font-style:normal;font-variant:normal;font-weight:normal;font-stretch:semi-expanded;font-family:'Goudy Old Style';-inkscape-font-specification:'Goudy Old Style Semi-Expanded';fill:#000000;fill-opacity:1"
       id="path4231" />
    <path
       d="m 74.256257,105.35245 q 1.786362,0 3.066588,1.26038 1.280226,1.25045 1.280226,2.9872 0,1.8856 -1.260377,3.11621 -1.260378,1.2306 -3.18568,1.2306 -1.885604,0 -3.106285,-1.19091 -1.210757,-1.20083 -1.210757,-3.06659 0,-1.80621 1.290151,-3.06658 1.29015,-1.27031 3.126134,-1.27031 z m -0.258031,0.39697 q -1.240529,0 -2.004695,0.92296 -0.754242,0.91303 -0.754242,2.40166 0,1.89553 0.942803,3.17576 0.952726,1.2703 2.361967,1.2703 1.230606,0 1.935226,-0.90311 0.714545,-0.9031 0.714545,-2.45128 0,-1.95508 -0.893181,-3.18568 -0.893181,-1.23061 -2.302423,-1.23061 z"
       style="font-style:normal;font-variant:normal;font-weight:normal;font-stretch:semi-expanded;font-family:'Goudy Old Style';-inkscape-font-specification:'Goudy Old Style Semi-Expanded';fill:#000000;fill-opacity:1"
       id="path4233" />
    <path
       d="m 83.376624,112.2101 1.955075,-3.99947 -0.188561,-0.49621 q -0.357272,-0.95273 -0.595454,-1.25045 -0.228257,-0.30765 -0.674848,-0.42674 -0.248106,-0.0595 -0.248106,-0.20841 0,-0.21834 0.317576,-0.21834 0.129015,0 0.416818,0.0298 0.357272,0.0397 1.061893,0.0397 0.595454,0 1.161135,-0.0496 0.238182,-0.0199 0.307651,-0.0199 0.307652,0 0.307652,0.18856 0,0.17864 -0.208409,0.22826 l -0.307652,0.0695 q -0.396969,0.0893 -0.396969,0.58553 0,0.21833 0.218333,0.79394 l 1.766514,4.64454 1.042045,-2.43144 0.396969,-0.91303 q 0.496212,-1.13136 0.496212,-1.87568 0,-0.38704 -0.248106,-0.62522 -0.248106,-0.24811 -0.635151,-0.24811 -0.297727,0 -0.297727,-0.20841 0,-0.20841 0.248106,-0.20841 0.148863,0 0.387045,0.0199 0.277878,0.0298 0.982499,0.0298 0.734394,0 1.002348,-0.0198 0.248106,-0.0198 0.377121,-0.0198 0.208409,0 0.208409,0.16871 0,0.13894 -0.218333,0.21833 -0.357273,0.10917 -0.545833,0.30765 -0.178637,0.18856 -0.387046,0.655 l -2.808558,6.59962 q -0.168712,0.37712 -0.476363,0.37712 -0.287803,0 -0.406894,-0.31757 l -1.766514,-4.65447 -2.272649,4.72393 q -0.119091,0.25803 -0.416818,0.25803 -0.25803,0 -0.337424,-0.21833 l -2.352044,-6.07363 -0.178636,-0.47636 q -0.317576,-0.80387 -1.012272,-1.09167 -0.238182,-0.0992 -0.238182,-0.2481 0,-0.19849 0.3275,-0.19849 0.08932,0 0.347348,0.0198 0.307651,0.0298 1.081742,0.0298 l 1.051969,-0.0198 0.416818,-0.01 0.228257,0.0496 q 0.07939,0.0397 0.07939,0.14886 -0.0099,0.13894 -0.188561,0.18856 l -0.267954,0.0695 q -0.456515,0.11909 -0.456515,0.59546 0,0.21833 0.287803,1.00235 l 1.657347,4.48575 z"
       style="font-style:normal;font-variant:normal;font-weight:normal;font-stretch:semi-expanded;font-family:'Goudy Old Style';-inkscape-font-specification:'Goudy Old Style Semi-Expanded';fill:#000000;fill-opacity:1"
       id="path4235" />
    <path
       d="m 94.194041,98.991019 q 0.456514,0 0.883257,0.694696 0.426742,0.684775 0.426742,1.419165 0,1.20083 -0.883257,2.2925 -0.734394,0.91303 -1.220681,0.91303 -0.178636,0 -0.178636,-0.15879 0,-0.10917 0.168712,-0.21833 0.357272,-0.22826 0.645075,-0.75424 0.297727,-0.53591 0.297727,-0.93288 0,-1.12144 -1.061893,-1.71689 -0.277879,-0.15879 -0.277879,-0.3275 0,-0.15879 0.178636,-0.327504 l 0.426743,-0.387045 0.367196,-0.426742 q 0.07939,-0.06947 0.228258,-0.06947 z"
       style="font-style:normal;font-variant:normal;font-weight:normal;font-stretch:semi-expanded;font-family:'Goudy Old Style';-inkscape-font-specification:'Goudy Old Style Semi-Expanded';fill:#000000;fill-opacity:1"
       id="path4237" />
    <path
       d="m 100.30737,105.35245 q 0.78402,0 1.3497,0.20841 l 0.43667,0.14887 q 0.26795,0.0992 0.26795,0.30765 l 0,0.15878 q 0,0.13894 0.0199,0.27788 l 0.0397,0.38705 q 0.0298,0.20841 0.0298,0.37712 0,0.38704 -0.21833,0.39697 -0.11909,0.01 -0.21834,-0.25803 -0.54583,-1.50848 -2.04439,-1.50848 -0.595454,0 -0.982499,0.33742 -0.377121,0.33742 -0.377121,0.85348 0,0.54584 0.406894,0.88326 0.406893,0.33742 1.657346,0.82371 1.24053,0.48629 1.71689,1.03212 0.48629,0.53591 0.48629,1.44894 0,1.12144 -0.83363,1.9253 -0.82372,0.79394 -1.97493,0.79394 -0.823709,0 -1.78636,-0.46644 -0.228257,-0.10916 -0.287802,-0.10916 l -0.25803,-0.0298 q -0.228258,-0.0198 -0.248106,-0.2481 l -0.0099,-0.42675 -0.02977,-1.2703 0.01985,-0.29772 q 0.0397,-0.26796 0.218333,-0.27788 0.178637,-0.01 0.238182,0.29772 0.208409,1.09167 0.803863,1.70697 0.605378,0.6153 1.448939,0.6153 0.72447,0 1.18098,-0.42674 0.46644,-0.42674 0.46644,-1.09166 0,-1.01228 -1.11151,-1.50849 l -0.873335,-0.38704 q -1.190908,-0.51606 -1.68712,-1.0619 -0.496211,-0.55575 -0.496211,-1.34969 0,-0.95273 0.764166,-1.60773 0.764166,-0.655 1.8856,-0.655 z"
       style="font-style:normal;font-variant:normal;font-weight:normal;font-stretch:semi-expanded;font-family:'Goudy Old Style';-inkscape-font-specification:'Goudy Old Style Semi-Expanded';fill:#000000;fill-opacity:1"
       id="path4239" />
    <path
       d="m 116.52357,106.87086 2.73909,4.04909 0.31757,0.47636 q 1.27031,1.86576 2.34212,1.93523 l 0.31758,0.0198 q 0.17864,0.01 0.16871,0.13894 -0.01,0.14886 -0.44659,0.26795 -0.42674,0.11909 -0.97257,0.11909 -0.89319,0 -1.60773,-0.48629 -0.70462,-0.49621 -1.43901,-1.60772 l -2.47114,-3.77121 -0.13894,-0.21833 q -0.23818,-0.4069 -0.77409,-0.4069 l -1.31992,0 -0.21833,0.0397 q -0.1191,0.0695 -0.1191,0.31757 l 0,3.09637 0.01,0.39696 q 0,0.85349 0.0794,1.17106 0.0893,0.30766 0.4069,0.55576 0.42674,0.33743 1.31992,0.42674 0.35727,0.0397 0.3672,0.22826 0.0198,0.19849 -0.3275,0.19849 -0.13894,0 -0.58553,-0.0397 -0.4069,-0.0397 -1.26038,-0.0397 l -0.95273,-0.01 -0.51606,0.01 q -0.33742,0 -0.81379,0.0496 -0.38704,0.0397 -0.5359,0.0397 -0.24811,0 -0.24811,-0.20841 0,-0.14886 0.24811,-0.19848 0.79393,-0.14887 1.04204,-0.71455 0.24811,-0.5756 0.24811,-2.2528 l 0,-7.1256 -0.0198,-1.03212 q 0,-1.54818 -1.08174,-1.72682 l -0.46644,-0.0695 q -0.31758,-0.0595 -0.31758,-0.23818 0,-0.20841 0.33743,-0.20841 0.0794,0 0.69469,0.0397 0.35727,0.0298 0.88326,0.0298 0.45651,0 1.5581,-0.0695 0.79394,-0.0496 1.39932,-0.0496 2.28258,0 3.44371,0.86341 1.16114,0.85348 1.16114,2.55053 0,2.23295 -2.45129,3.45363 z m -2.91772,-0.21833 1.12143,0 q 1.30008,0 2.0444,-0.71455 0.74431,-0.71454 0.74431,-1.95507 0,-1.43902 -1.01227,-2.36197 -1.01227,-0.93288 -2.5803,-0.93288 -0.58553,0 -0.81379,0.19849 -0.21833,0.18856 -0.21833,0.69469 l 0.01,0.3275 0,4.02924 q 0,0.46644 0.1191,0.59546 0.12901,0.11909 0.58553,0.11909 z"
       style="font-style:normal;font-variant:normal;font-weight:normal;font-stretch:semi-expanded;font-family:'Goudy Old Style';-inkscape-font-specification:'Goudy Old Style Semi-Expanded';fill:#000000;fill-opacity:1"
       id="path4241" />
    <path
       d="m 124.01637,108.74654 -0.01,0.21833 q 0,1.69705 0.93288,2.85818 0.9428,1.15122 2.31235,1.15122 1.08174,0 2.35204,-0.97258 0.0794,-0.0595 0.14887,-0.0695 0.13894,-0.01 0.13894,0.15879 0,0.29773 -0.6947,0.84356 -1.29015,1.01227 -2.72917,1.01227 -1.61765,0 -2.71924,-1.2306 -1.09166,-1.23061 -1.09166,-3.04674 0,-1.72682 1.13136,-3.01697 1.13136,-1.30008 2.64977,-1.30008 1.65735,0 2.64977,1.37947 0.23818,0.33743 0.48629,0.91303 0.24811,0.57561 0.24811,0.80386 0,0.3275 -0.64508,0.3275 l -0.73439,-0.01 -0.67485,-0.0199 -3.75136,0 z m 0.0397,-0.53591 3.36431,0 q 0.78402,0 0.78402,-0.31757 0,-0.77409 -0.67485,-1.43902 -0.66493,-0.66492 -1.44894,-0.66492 -0.81379,0 -1.35962,0.655 -0.53591,0.64507 -0.66492,1.76651 z"
       style="font-style:normal;font-variant:normal;font-weight:normal;font-stretch:semi-expanded;font-family:'Goudy Old Style';-inkscape-font-specification:'Goudy Old Style Semi-Expanded';fill:#000000;fill-opacity:1"
       id="path4243" />
    <path
       d="m 133.93068,105.35245 q 0.78402,0 1.3497,0.20841 l 0.43666,0.14887 q 0.26796,0.0992 0.26796,0.30765 l 0,0.15878 q 0,0.13894 0.0198,0.27788 l 0.0397,0.38705 q 0.0298,0.20841 0.0298,0.37712 0,0.38704 -0.21834,0.39697 -0.11909,0.01 -0.21833,-0.25803 -0.54583,-1.50848 -2.04439,-1.50848 -0.59546,0 -0.9825,0.33742 -0.37712,0.33742 -0.37712,0.85348 0,0.54584 0.40689,0.88326 0.40689,0.33742 1.65735,0.82371 1.24053,0.48629 1.71689,1.03212 0.48629,0.53591 0.48629,1.44894 0,1.12144 -0.83364,1.9253 -0.82371,0.79394 -1.97492,0.79394 -0.82371,0 -1.78636,-0.46644 -0.22826,-0.10916 -0.28781,-0.10916 l -0.25803,-0.0298 q -0.22825,-0.0198 -0.2481,-0.2481 l -0.01,-0.42675 -0.0298,-1.2703 0.0199,-0.29772 q 0.0397,-0.26796 0.21833,-0.27788 0.17864,-0.01 0.23818,0.29772 0.20841,1.09167 0.80387,1.70697 0.60538,0.6153 1.44894,0.6153 0.72446,0 1.18098,-0.42674 0.46644,-0.42674 0.46644,-1.09166 0,-1.01228 -1.11152,-1.50849 l -0.87333,-0.38704 q -1.19091,-0.51606 -1.68712,-1.0619 -0.49621,-0.55575 -0.49621,-1.34969 0,-0.95273 0.76417,-1.60773 0.76416,-0.655 1.8856,-0.655 z"
       style="font-style:normal;font-variant:normal;font-weight:normal;font-stretch:semi-expanded;font-family:'Goudy Old Style';-inkscape-font-specification:'Goudy Old Style Semi-Expanded';fill:#000000;fill-opacity:1"
       id="path4245" />
    <path
       d="m 139.45848,108.74654 -0.01,0.21833 q 0,1.69705 0.93288,2.85818 0.9428,1.15122 2.31234,1.15122 1.08175,0 2.35205,-0.97258 0.0794,-0.0595 0.14886,-0.0695 0.13894,-0.01 0.13894,0.15879 0,0.29773 -0.6947,0.84356 -1.29015,1.01227 -2.72916,1.01227 -1.61765,0 -2.71924,-1.2306 -1.09167,-1.23061 -1.09167,-3.04674 0,-1.72682 1.13137,-3.01697 1.13136,-1.30008 2.64977,-1.30008 1.65734,0 2.64977,1.37947 0.23818,0.33743 0.48629,0.91303 0.2481,0.57561 0.2481,0.80386 0,0.3275 -0.64507,0.3275 l -0.7344,-0.01 -0.67484,-0.0199 -3.75137,0 z m 0.0397,-0.53591 3.36432,0 q 0.78401,0 0.78401,-0.31757 0,-0.77409 -0.67485,-1.43902 -0.66492,-0.66492 -1.44893,-0.66492 -0.81379,0 -1.35962,0.655 -0.53591,0.64507 -0.66493,1.76651 z"
       style="font-style:normal;font-variant:normal;font-weight:normal;font-stretch:semi-expanded;font-family:'Goudy Old Style';-inkscape-font-specification:'Goudy Old Style Semi-Expanded';fill:#000000;fill-opacity:1"
       id="path4247" />
    <path
       d="m 151.29809,109.32215 0,-1.23061 q 0,-1.14128 -0.42674,-1.57795 -0.57561,-0.59546 -1.54818,-0.59546 -1.31,0 -1.31,1.11152 0,0.3275 0.12901,0.75424 0.0596,0.17864 0.0695,0.31758 0.01,0.17863 -0.19848,0.17863 -0.46644,0 -0.85349,-0.19848 -0.37712,-0.19849 -0.37712,-0.43667 0,-0.6153 0.66493,-1.32985 0.89318,-0.96265 2.37189,-0.96265 1.3497,0 2.09401,0.60538 0.74432,0.59546 0.74432,1.68712 l 0,3.8903 q 0,0.92296 0.21833,1.31992 0.22826,0.38705 0.75425,0.38705 0.14886,0 0.23818,-0.0199 0.17863,-0.0496 0.23818,-0.0496 0.16871,-0.01 0.15879,0.13894 -0.01,0.17864 -0.46644,0.3672 -0.45652,0.17863 -0.89318,0.17863 -0.81379,0 -1.46879,-1.00235 -1.43901,1.09167 -2.66962,1.09167 -0.93288,0 -1.48863,-0.49621 -0.54584,-0.50614 -0.54584,-1.3497 0,-1.14128 1.04205,-1.76651 1.04204,-0.63515 3.5231,-1.01227 z m 0,0.38704 q -1.54818,0.13894 -2.39174,0.70462 -0.84356,0.55576 -0.84356,1.42909 0,0.68478 0.39697,1.09167 0.40689,0.39697 1.09167,0.39697 0.83363,0 1.39931,-0.54583 0.34735,-0.34735 0.34735,-1.10159 l 0,-1.97493 z"
       style="font-style:normal;font-variant:normal;font-weight:normal;font-stretch:semi-expanded;font-family:'Goudy Old Style';-inkscape-font-specification:'Goudy Old Style Semi-Expanded';fill:#000000;fill-opacity:1"
       id="path4249" />
    <path
       d="m 157.95726,107.15866 q 1.15121,-1.80621 2.12378,-1.80621 0.30766,0 0.80387,0.3672 0.50613,0.3672 0.52598,0.59545 0.01,0.14887 -0.31757,0.55576 -0.3275,0.39697 -0.46644,0.40689 -0.0695,0 -0.43667,-0.23818 -0.42674,-0.29772 -0.81379,-0.29772 -0.60537,0 -1.01227,0.43666 -0.40689,0.42674 -0.40689,1.07182 l 0,3.54295 q 0,0.83364 0.21833,1.19091 0.22826,0.34735 0.78402,0.39697 l 0.51606,0.0397 q 0.31757,0.0198 0.31757,0.19848 0,0.19849 -0.27788,0.19849 -0.0695,0 -0.46644,-0.0496 -0.18856,-0.0198 -0.55575,-0.0198 l -0.71455,-0.01 -0.43666,0 q -0.77409,0 -1.10159,0.0496 -0.25803,0.0397 -0.35728,0.0496 -0.26795,0.01 -0.26795,-0.19848 0,-0.16871 0.30765,-0.22826 0.42674,-0.0992 0.54583,-0.36719 0.12902,-0.26796 0.12902,-1.14129 l 0,-4.2575 q 0,-1.14129 -1.09167,-1.14129 l -0.33742,0.01 q -0.22826,0 -0.22826,-0.19849 0,-0.11909 0.14886,-0.17863 0.0893,-0.0199 0.21834,-0.0298 0.93288,-0.0893 2.20318,-0.87334 0.12901,-0.0695 0.22826,-0.0794 0.22825,-0.01 0.22825,0.33742 l -0.01,0.18856 0,1.47871 z"
       style="font-style:normal;font-variant:normal;font-weight:normal;font-stretch:semi-expanded;font-family:'Goudy Old Style';-inkscape-font-specification:'Goudy Old Style Semi-Expanded';fill:#000000;fill-opacity:1"
       id="path4251" />
    <path
       d="m 166.28368,105.35245 q 0.85348,0 1.51841,0.21834 0.67485,0.21833 0.67485,0.49621 l -0.01,0.29773 0.0695,0.75424 q 0,0.52598 -0.23818,0.54583 -0.10917,0.01 -0.27788,-0.29773 -0.31757,-0.5756 -1.07182,-0.99242 -0.74431,-0.42674 -1.44893,-0.42674 -0.97258,0 -1.58788,0.89318 -0.61531,0.88326 -0.61531,2.28257 0,1.65735 0.94281,2.80856 0.95272,1.14129 2.32227,1.14129 1.10159,0 2.16348,-0.90311 0.12902,-0.10916 0.23818,-0.11909 0.14887,-0.0199 0.14887,0.13894 0,0.21833 -0.47637,0.64508 -1.2306,1.11151 -2.95742,1.11151 -1.58788,0 -2.65969,-1.15121 -1.0619,-1.16114 -1.0619,-2.8681 0,-1.90546 1.26038,-3.2353 1.2703,-1.33978 3.06659,-1.33978 z"
       style="font-style:normal;font-variant:normal;font-weight:normal;font-stretch:semi-expanded;font-family:'Goudy Old Style';-inkscape-font-specification:'Goudy Old Style Semi-Expanded';fill:#000000;fill-opacity:1"
       id="path4253" />
    <path
       d="m 172.28784,106.93041 q 1.28023,-1.57796 2.78871,-1.57796 1.39932,0 2.26273,0.96265 0.87333,0.96265 0.87333,2.52076 l 0,3.14598 q 0,0.75424 0.24811,1.03212 0.2481,0.27788 1.05196,0.4069 0.26796,0.0397 0.26796,0.21833 0,0.17864 -0.26796,0.17864 -0.11909,0 -0.48628,-0.0298 -0.7344,-0.0496 -1.26038,-0.0496 -0.87333,0 -1.29015,0.0596 -0.23818,0.0298 -0.30765,0.0298 -0.26796,0 -0.27788,-0.17864 -0.01,-0.11909 0.19848,-0.19848 0.50614,-0.18856 0.62523,-0.33742 0.11909,-0.15879 0.11909,-0.60538 l 0.01,-0.30765 0,-3.30477 q 0,-1.26038 -0.64508,-1.99478 -0.64507,-0.74431 -1.72682,-0.74431 -0.83363,0 -1.50848,0.52598 -0.67485,0.52599 -0.67485,1.18098 l 0,3.84068 q 0,1.01228 0.22826,1.31 0.22826,0.29773 1.11151,0.41682 0.33743,0.0496 0.33743,0.24811 0,0.16871 -0.21834,0.16871 -0.10916,0 -0.54583,-0.0496 -0.35727,-0.0397 -1.50848,-0.0397 -0.39697,0 -1.14129,0.0596 -0.3275,0.0298 -0.45651,0.0298 -0.23819,0 -0.24811,-0.15879 -0.01,-0.17864 0.22826,-0.24811 0.58553,-0.17863 0.71454,-0.40689 0.13894,-0.22826 0.13894,-1.08174 l 0,-10.34105 q 0,-1.22068 -0.66492,-1.18099 l -0.50614,0.0298 q -0.0794,0 -0.13894,-0.0298 -0.0695,-0.0397 -0.0695,-0.12901 0,-0.13894 0.22826,-0.19849 0.62523,-0.14886 1.38939,-0.516057 l 0.77409,-0.367197 q 0.11909,-0.05954 0.20841,-0.05954 0.16871,0 0.16871,0.218333 0,0.05954 -0.0198,0.238182 -0.01,0.168712 -0.01,0.506134 l 0,6.80803 z"
       style="font-style:normal;font-variant:normal;font-weight:normal;font-stretch:semi-expanded;font-family:'Goudy Old Style';-inkscape-font-specification:'Goudy Old Style Semi-Expanded';fill:#000000;fill-opacity:1"
       id="path4255" />
    <path
       d="m 195.50064,101.17435 -2.78871,0 q -0.43667,0 -0.55576,0.11909 -0.10917,0.11909 -0.10917,0.58553 l 0,9.72575 0.01,0.38705 q 0.0496,1.16113 1.30007,1.37947 0.34735,0.0595 0.34735,0.22825 0,0.21834 -0.27788,0.21834 -0.11909,0 -0.48629,-0.0596 -0.18856,-0.0298 -0.89318,-0.0298 l -0.72447,-0.01 -0.77409,0.01 q -0.41681,0 -0.70462,0.0298 -0.56568,0.0596 -0.66492,0.0596 -0.29773,0 -0.29773,-0.21834 0,-0.15879 0.3275,-0.19848 0.76417,-0.0992 1.03212,-0.41682 0.26796,-0.3275 0.26796,-1.16114 l 0,-9.83491 -0.01,-0.25803 q 0,-0.35727 -0.10916,-0.45652 -0.0992,-0.0992 -0.47637,-0.0992 l -2.62992,0 q -0.80386,0 -1.17106,0.3275 -0.35727,0.31758 -0.55576,1.21076 -0.0893,0.38704 -0.26795,0.37712 -0.17864,-0.01 -0.17864,-0.26796 0,-0.20841 0.11909,-0.76416 0.14887,-0.71455 0.14887,-1.18099 0,-0.45651 0.0992,-0.59545 0.10917,-0.14886 0.44659,-0.14886 l 10.67848,0 q 0.54583,0 0.655,0.11909 0.11909,0.11909 0.11909,0.70462 0,0.58553 0.0496,0.85348 0.0496,0.33743 0.0595,0.48629 0.01,0.29773 -0.2084,0.31757 -0.17864,0.01 -0.23819,-0.30765 -0.12901,-0.70462 -0.41681,-0.91303 -0.28781,-0.21833 -1.12144,-0.21833 z"
       style="font-style:normal;font-variant:normal;font-weight:normal;font-stretch:semi-expanded;font-family:'Goudy Old Style';-inkscape-font-specification:'Goudy Old Style Semi-Expanded';fill:#000000;fill-opacity:1"
       id="path4257" />
    <path
       d="m 200.98874,105.35245 q 1.78636,0 3.06658,1.26038 1.28023,1.25045 1.28023,2.9872 0,1.8856 -1.26038,3.11621 -1.26038,1.2306 -3.18568,1.2306 -1.8856,0 -3.10628,-1.19091 -1.21076,-1.20083 -1.21076,-3.06659 0,-1.80621 1.29015,-3.06658 1.29015,-1.27031 3.12614,-1.27031 z m -0.25803,0.39697 q -1.24053,0 -2.0047,0.92296 -0.75424,0.91303 -0.75424,2.40166 0,1.89553 0.9428,3.17576 0.95273,1.2703 2.36197,1.2703 1.2306,0 1.93522,-0.90311 0.71455,-0.9031 0.71455,-2.45128 0,-1.95508 -0.89318,-3.18568 -0.89318,-1.23061 -2.30242,-1.23061 z"
       style="font-style:normal;font-variant:normal;font-weight:normal;font-stretch:semi-expanded;font-family:'Goudy Old Style';-inkscape-font-specification:'Goudy Old Style Semi-Expanded';fill:#000000;fill-opacity:1"
       id="path4259" />
    <path
       d="m 213.45358,112.46813 q -1.01228,0.87333 -1.64743,1.18098 -0.62522,0.29773 -1.41916,0.29773 -1.49856,0 -2.52076,-1.17106 -1.01227,-1.17106 -1.01227,-2.89788 0,-1.90545 1.21076,-3.21545 1.22068,-1.31 2.98719,-1.31 1.20083,0 2.40167,0.70462 l 0,-3.92007 q 0,-1.8856 -1.01228,-1.82606 l -0.34734,0.0198 q -0.0695,0 -0.12902,-0.0198 -0.0992,-0.0397 -0.10917,-0.14886 -0.0198,-0.198486 0.28781,-0.238183 1.02219,-0.129015 2.32227,-0.91303 0.10917,-0.06947 0.18856,-0.06947 0.14886,0 0.14886,0.218333 l 0.01,0.178636 0,12.613703 q 0,1.12144 0.68477,1.12144 l 0.58553,-0.0199 0.0893,0.01 q 0.10916,0.0397 0.10916,0.15879 0,0.21833 -0.35727,0.25803 -0.40689,0.0397 -0.51606,0.0596 l -0.55576,0.0893 q -0.655,0.0992 -0.87333,0.2084 -0.18856,0.10917 -0.29773,0.10917 -0.22825,0.01 -0.22825,-0.49621 l 0,-0.9825 z m 0,-1.20083 0,-3.275 q 0,-0.89318 -0.43667,-1.31 -0.9825,-0.9428 -2.33219,-0.9428 -1.20084,0 -1.94515,0.91303 -0.7344,0.91303 -0.7344,2.40166 0,1.62758 0.96265,2.82841 0.97258,1.19091 2.2925,1.19091 0.97258,0 1.57795,-0.49621 0.61531,-0.50614 0.61531,-1.31 z"
       style="font-style:normal;font-variant:normal;font-weight:normal;font-stretch:semi-expanded;font-family:'Goudy Old Style';-inkscape-font-specification:'Goudy Old Style Semi-Expanded';fill:#000000;fill-opacity:1"
       id="path4261" />
    <path
       d="m 222.11743,109.32215 0,-1.23061 q 0,-1.14128 -0.42675,-1.57795 -0.5756,-0.59546 -1.54818,-0.59546 -1.31,0 -1.31,1.11152 0,0.3275 0.12902,0.75424 0.0596,0.17864 0.0695,0.31758 0.01,0.17863 -0.19849,0.17863 -0.46643,0 -0.85348,-0.19848 -0.37712,-0.19849 -0.37712,-0.43667 0,-0.6153 0.66492,-1.32985 0.89318,-0.96265 2.3719,-0.96265 1.34969,0 2.09401,0.60538 0.74432,0.59546 0.74432,1.68712 l 0,3.8903 q 0,0.92296 0.21833,1.31992 0.22826,0.38705 0.75424,0.38705 0.14886,0 0.23818,-0.0199 0.17864,-0.0496 0.23818,-0.0496 0.16872,-0.01 0.15879,0.13894 -0.01,0.17864 -0.46644,0.3672 -0.45651,0.17863 -0.89318,0.17863 -0.81378,0 -1.46878,-1.00235 -1.43902,1.09167 -2.66962,1.09167 -0.93288,0 -1.48864,-0.49621 -0.54583,-0.50614 -0.54583,-1.3497 0,-1.14128 1.04204,-1.76651 1.04205,-0.63515 3.52311,-1.01227 z m 0,0.38704 q -1.54818,0.13894 -2.39174,0.70462 -0.84356,0.55576 -0.84356,1.42909 0,0.68478 0.39697,1.09167 0.40689,0.39697 1.09166,0.39697 0.83364,0 1.39932,-0.54583 0.34735,-0.34735 0.34735,-1.10159 l 0,-1.97493 z"
       style="font-style:normal;font-variant:normal;font-weight:normal;font-stretch:semi-expanded;font-family:'Goudy Old Style';-inkscape-font-specification:'Goudy Old Style Semi-Expanded';fill:#000000;fill-opacity:1"
       id="path4263" />
    <path
       d="m 229.61022,112.26965 1.48864,-4.09871 q 0.23818,-0.66493 0.23818,-1.17106 0,-0.47637 -0.21833,-0.68478 -0.21834,-0.21833 -0.84356,-0.36719 -0.23819,-0.0496 -0.23819,-0.20841 0,-0.17864 0.19849,-0.16871 0.12901,0.01 0.39697,0.0298 0.21833,0.0199 0.89318,0.0199 0.74432,0 1.04204,-0.0199 0.33743,-0.0199 0.44659,-0.0199 0.20841,0 0.20841,0.16871 0,0.12902 -0.20841,0.21834 -0.38704,0.14886 -0.55575,0.33742 -0.15879,0.18856 -0.33743,0.67485 l -3.51318,9.90438 -0.0992,0.31758 q -0.0794,0.25803 -0.18856,0.29773 -0.10917,0.0397 -0.6947,0.0397 -0.67484,0 -0.67484,-0.13894 0,-0.0794 0.11909,-0.18856 0.68477,-0.68477 1.20083,-1.64742 0.52598,-0.95273 0.52598,-1.52833 0,-0.29773 -0.37712,-1.18099 l -2.49098,-5.7759 q -0.24811,-0.57561 -0.44659,-0.79394 -0.18856,-0.21833 -0.53591,-0.30765 -0.21833,-0.0596 -0.21833,-0.18856 0,-0.21833 0.2878,-0.21833 0.20841,0 0.52599,0.0298 0.23818,0.0298 1.00234,0.0298 0.93288,0 1.31,-0.0298 0.24811,-0.0199 0.35727,-0.0199 0.26796,-0.01 0.26796,0.19849 0,0.17863 -0.53591,0.25803 -0.59545,0.0893 -0.59545,0.49621 0,0.35727 0.31757,1.10159 l 1.94515,4.63462 z"
       style="font-style:normal;font-variant:normal;font-weight:normal;font-stretch:semi-expanded;font-family:'Goudy Old Style';-inkscape-font-specification:'Goudy Old Style Semi-Expanded';fill:#000000;fill-opacity:1"
       id="path4265" />
  </g>
</svg>
